# xmcd
#
# Track frame offsets:
#	150
#	16985
#	34303
#	48310
#	65840
#	80148
#	94605
#	109133
#	125055
#	139425
#	151118
#	165140
#	183250
#	202038
#	214968
#	229933
#	245405
#	262895
#	276038
#	291875
#	307638
#
# Disc length: 4287
#
# Revision: 3
# Processed by: cddbd v1.5.1PL0 Copyright (c) Steve Scherf et al.
# Submitted via: CDex 1.40Beta8
# Normalized: r1:DSETVAR1,TDELIM( - ),TSWAP
#
DISCID=2c10bd15
DTITLE=Various Artist - Top Hits USA RC23
DYEAR=1994
DGENRE=Country
TTITLE0=Neal McCoy - No Doubt About It
TTITLE1=Garth Brooks - Standing Outside The Fire
TTITLE2=Tim McGraw (Radio) - Indian Outlaw
TTITLE3=Tanya Tucker - We Don't Have To Do This
TTITLE4=Collin Raye - That's My Story
TTITLE5=Billy Ray Cyrus - Words By Heart
TTITLE6=Wynonna (Remix) - Rock Bottom
TTITLE7=Alan Jackson - Who Says You Can't Have It All
TTITLE8=Doug Stone - Addicted To A Dollar
TTITLE9=Tracy Lawrence - If The Good Die Young
TTITLE10=Martina McBride (Single Edit) - Life #9
TTITLE11=Little Texas - My Love
TTITLE12=Lee Roy Parnell - I'm Holding My Own
TTITLE13=Clint Black (Single) - A Good Run Of Bad Luck
TTITLE14=Randy Travis - Before You Kill Us All
TTITLE15=John Berry (Edit) - Your Love Amazes Me
TTITLE16=Faith Hill - Piece Of My Heart
TTITLE17=Shenandoah - If Bubba Can Dance (I Can Too)
TTITLE18=Blackhawk - Goodbye Says It All
TTITLE19=Sammy Kershaw - I Can't Reach Her Anymore
TTITLE20=Dwight Yoakam - Try Not To Look So Pretty
EXTD=YEAR: 1994 ID3G: 2
EXTT0=
EXTT1=
EXTT2=
EXTT3=
EXTT4=
EXTT5=
EXTT6=
EXTT7=
EXTT8=
EXTT9=
EXTT10=
EXTT11=
EXTT12=
EXTT13=
EXTT14=
EXTT15=
EXTT16=
EXTT17=
EXTT18=
EXTT19=
EXTT20=
PLAYORDER=
